<svg id="Layer_3" data-name="Layer 3" xmlns="http://www.w3.org/2000/svg" viewBox="0 0 91.44 47.94"><defs><style>.cls-1,.cls-2{fill:none;stroke:#272727;stroke-linecap:round;}.cls-1{stroke-linejoin:round;}.cls-2{stroke-miterlimit:10;}</style></defs><title>body parts</title><path class="cls-1" d="M3.16,58.68v5.81c.25.82,1.56,1.56,1.56,1.56h6.22V61a12,12,0,0,1,9.57-7.28C26.73,53,30.9,60.48,30.9,60.48v5.57H45.63V57.86h-4V32.58H40.39V24.15a23.59,23.59,0,0,0-15.95,8.76L17.81,45.59,8.73,48a5.9,5.9,0,0,0-4.15,5.56v5" transform="translate(-2.66 -23.65)"/><line class="cls-2" x1="1.07" y1="35.11" x2="9.34" y2="35.11"/><circle class="cls-2" cx="18.06" cy="40.13" r="7.31"/><circle class="cls-2" cx="18.06" cy="40.13" r="3.33"/><circle class="cls-2" cx="64.47" cy="40.13" r="7.31"/><circle class="cls-2" cx="64.47" cy="40.13" r="3.33"/><circle class="cls-2" cx="81.45" cy="40.13" r="7.31"/><circle class="cls-2" cx="81.45" cy="40.13" r="3.33"/><path class="cls-2" d="M22.77,36.11h7.67V41.2s-.77,2.73-3.28,3-9.35,1.34-9.35,1.34" transform="translate(-2.66 -23.65)"/><path class="cls-2" d="M41.62,57.86H32.51a2.64,2.64,0,0,0-2.35,1.49" transform="translate(-2.66 -23.65)"/><path class="cls-2" d="M26.28,44.37l4.59,3.38a6.53,6.53,0,0,1,2,4.58v5.53" transform="translate(-2.66 -23.65)"/><line class="cls-1" x1="57.28" y1="38.93" x2="42.97" y2="38.93"/><polyline class="cls-1" points="38.96 27.91 90.94 27.91 90.94 38.92 88.66 38.92 88.65 38.92"/><line class="cls-1" x1="74.25" y1="38.93" x2="71.68" y2="38.93"/><polyline class="cls-1" points="64.47 27.91 64.47 24.53 81.01 24.53 81.01 27.91"/><line class="cls-1" x1="21.77" y1="9.25" x2="30.72" y2="9.25"/></svg>