<svg id="Layer_1" data-name="Layer 1" xmlns="http://www.w3.org/2000/svg" viewBox="0 0 93.25 93.45"><defs><style>.cls-1,.cls-2{fill:none;stroke:#272727;stroke-linecap:round;stroke-miterlimit:10;stroke-width:2px;}.cls-1{opacity:0.2;}</style></defs><title>service</title><g id="dealer-loactor"><path class="cls-1" d="M57.8,23" transform="translate(-2.75 -2.48)"/><path class="cls-1" d="M74.33,12.52" transform="translate(-2.75 -2.48)"/></g><g id="service"><path class="cls-2" d="M45.77,37,25.63,16.84,24.16,11a1.58,1.58,0,0,0-.74-1l-11-6.29a1.56,1.56,0,0,0-1.88.25l-6.3,6.3A1.59,1.59,0,0,0,4,12.13l6.3,11a1.61,1.61,0,0,0,1,.75l5.87,1.46L37.24,45.49" transform="translate(-2.75 -2.48)"/><path class="cls-2" d="M34.66,66.87,69.27,32.25" transform="translate(-2.75 -2.48)"/><path class="cls-2" d="M28.69,70.32a1.55,1.55,0,0,0-1.34-.77H17.91a1.55,1.55,0,0,0-1.35.77l-4.72,7.86a1.57,1.57,0,0,0,0,1.62l4.72,7.87a1.57,1.57,0,0,0,1.35.76h9.44a1.56,1.56,0,0,0,1.34-.76l4.72-7.87a1.57,1.57,0,0,0,0-1.62Z" transform="translate(-2.75 -2.48)"/><path class="cls-2" d="M85.45,94.72a9.33,9.33,0,0,1-3.35-.61L94.39,81.83a9.53,9.53,0,0,1-5.58,12.28A9.17,9.17,0,0,1,85.45,94.72ZM67.62,53.83a4.91,4.91,0,0,0,6.92,6.92L92.2,78.42a7.7,7.7,0,0,1,.54.6L79.29,92.47c-.2-.17-.41-.35-.6-.54L61,74.26a4.91,4.91,0,0,0-6.92-6.92l-2.52-2.51L65.1,51.32ZM74,38,38.29,73.69a1.58,1.58,0,0,0-.42,1.5A15.84,15.84,0,1,1,26.43,63.75a1.58,1.58,0,0,0,1.49-.42L63.61,27.65a1.59,1.59,0,0,0,.41-1.5A15.64,15.64,0,0,1,80.16,6.65L71.86,15a1.57,1.57,0,0,0-.38,1.61L74.62,26a1.57,1.57,0,0,0,1,1l9.44,3.15a1.57,1.57,0,0,0,1.61-.38l8.3-8.3c0,.3,0,.6,0,.89A15.67,15.67,0,0,1,79.42,38.09a16.09,16.09,0,0,1-4-.49A1.56,1.56,0,0,0,74,38Z" transform="translate(-2.75 -2.48)"/><path class="cls-2" d="M83.94,83.76,68.21,68" transform="translate(-2.75 -2.48)"/></g></svg>